<svg width="333" height="333" viewBox="0 0 333 333" fill="none" xmlns="http://www.w3.org/2000/svg">
<circle cx="166.5" cy="166.5" r="165" fill="#D9D9D9" stroke="#104028" stroke-width="3"/>
<circle cx="166" cy="167" r="159.5" fill="#D9D9D9" stroke="#104028" stroke-width="5"/>
<mask id="path-3-inside-1_20_49" fill="white">
<path d="M165.764 319.554C161.032 319.587 156.362 318.467 152.16 316.289C147.958 314.112 144.351 310.943 141.65 307.056C138.927 303.163 134.921 300.353 130.335 299.117C125.748 297.882 120.872 298.3 116.563 300.299C112.273 302.255 107.577 303.155 102.868 302.925C98.1592 302.694 93.5738 301.34 89.4955 298.974C85.4172 296.609 81.9646 293.301 79.4263 289.328C76.888 285.355 75.3379 280.832 74.9055 276.138C74.5063 271.361 72.4275 266.88 69.0381 263.491C65.6487 260.101 61.1679 258.022 56.3913 257.623C51.6965 257.191 47.1735 255.641 43.2005 253.103C39.2274 250.564 35.9199 247.112 33.5545 243.033C31.1891 238.955 29.8345 234.37 29.6041 229.661C29.3737 224.952 30.2741 220.256 32.2301 215.966C34.2304 211.669 34.6542 206.804 33.427 202.226C32.1998 197.647 29.4001 193.647 25.5187 190.926C21.6507 188.2 18.4945 184.584 16.3158 180.383C14.1372 176.182 13 171.52 13 166.788C13 162.055 14.1372 157.393 16.3158 153.192C18.4945 148.991 21.6507 145.376 25.5187 142.65C29.4117 139.927 32.2223 135.921 33.4579 131.335C34.6935 126.748 34.2752 121.872 32.2764 117.563C30.3204 113.273 29.42 108.577 29.6504 103.868C29.8808 99.1592 31.2354 94.5738 33.6008 90.4955C35.9662 86.4172 39.2737 82.9646 43.2467 80.4263C47.2198 77.888 51.7428 76.3379 56.4375 75.9055C61.2142 75.5063 65.695 73.4275 69.0844 70.0381C72.4738 66.6487 74.5526 62.1679 74.9518 57.3913C75.3841 52.6965 76.9343 48.1735 79.4726 44.2005C82.0109 40.2274 85.4635 36.9199 89.5418 34.5545C93.6201 32.1891 98.2055 30.8345 102.915 30.6041C107.623 30.3737 112.319 31.2741 116.609 33.2301C120.906 35.2304 125.771 35.6542 130.349 34.427C134.928 33.1998 138.929 30.4001 141.65 26.5187C144.376 22.6507 147.991 19.4945 152.192 17.3158C156.393 15.1372 161.055 14 165.788 14C170.52 14 175.182 15.1372 179.383 17.3158C183.584 19.4945 187.2 22.6507 189.926 26.5187C192.648 30.4117 196.654 33.2223 201.241 34.4579C205.827 35.6935 210.703 35.2752 215.012 33.2764C219.302 31.3204 223.998 30.42 228.707 30.6504C233.416 30.8808 238.001 32.2354 242.08 34.6008C246.158 36.9662 249.611 40.2737 252.149 44.2467C254.687 48.2198 256.237 52.7428 256.67 57.4375C257.069 62.2142 259.148 66.695 262.537 70.0844C265.926 73.4738 270.407 75.5526 275.184 75.9518C279.879 76.3841 284.402 77.9343 288.375 80.4726C292.348 83.0109 295.655 86.4635 298.021 90.5418C300.386 94.6201 301.741 99.2055 301.971 103.915C302.201 108.623 301.301 113.319 299.345 117.609C297.345 121.906 296.921 126.771 298.148 131.349C299.375 135.928 302.175 139.929 306.056 142.65C309.924 145.376 313.081 148.991 315.259 153.192C317.438 157.393 318.575 162.055 318.575 166.788C318.575 171.52 317.438 176.182 315.259 180.383C313.081 184.584 309.924 188.2 306.056 190.926C302.194 193.651 299.411 197.646 298.193 202.214C296.975 206.782 297.399 211.633 299.391 215.92C301.347 220.21 302.248 224.905 302.017 229.614C301.787 234.323 300.432 238.909 298.067 242.987C295.701 247.065 292.394 250.518 288.421 253.056C284.448 255.595 279.925 257.145 275.23 257.577C270.453 257.976 265.973 260.055 262.583 263.444C259.194 266.834 257.115 271.315 256.716 276.091C256.284 280.786 254.733 285.309 252.195 289.282C249.657 293.255 246.204 296.563 242.126 298.928C238.048 301.293 233.462 302.648 228.753 302.878C224.044 303.109 219.348 302.208 215.059 300.252C210.761 298.252 205.897 297.828 201.318 299.056C196.74 300.283 192.739 303.082 190.018 306.964C187.311 310.884 183.685 314.081 179.457 316.276C175.229 318.47 170.528 319.596 165.764 319.554ZM125.079 289.144C129.806 289.141 134.465 290.275 138.661 292.45C142.858 294.625 146.471 297.777 149.194 301.641C151.061 304.296 153.538 306.463 156.418 307.959C159.298 309.454 162.496 310.235 165.741 310.235C168.987 310.235 172.184 309.454 175.064 307.959C177.944 306.463 180.422 304.296 182.288 301.641C186.267 295.98 192.105 291.893 198.786 290.092C205.467 288.29 212.569 288.888 218.854 291.782C221.799 293.144 225.028 293.78 228.269 293.635C231.51 293.49 234.67 292.57 237.481 290.951C240.293 289.332 242.675 287.062 244.427 284.331C246.18 281.6 247.251 278.489 247.551 275.258C248.147 268.363 251.157 261.898 256.051 257.004C260.945 252.11 267.409 249.101 274.304 248.505C277.509 248.183 280.59 247.103 283.294 245.353C285.997 243.603 288.245 241.235 289.851 238.444C291.457 235.652 292.375 232.519 292.529 229.302C292.683 226.086 292.068 222.879 290.736 219.947C287.819 213.678 287.194 206.585 288.971 199.903C290.747 193.221 294.811 187.374 300.456 183.381C303.101 181.513 305.26 179.038 306.75 176.162C308.24 173.287 309.017 170.095 309.017 166.857C309.017 163.618 308.24 160.427 306.75 157.552C305.26 154.676 303.101 152.201 300.456 150.333C294.808 146.332 290.742 140.477 288.966 133.787C287.189 127.097 287.816 119.997 290.736 113.721C292.098 110.776 292.733 107.547 292.589 104.306C292.444 101.065 291.524 97.9055 289.905 95.0937C288.285 92.282 286.015 89.8999 283.285 88.1476C280.554 86.3953 277.442 85.3241 274.212 85.0238C267.324 84.4298 260.865 81.4265 255.972 76.5419C251.079 71.6574 248.065 65.2042 247.459 58.317C247.154 55.1042 246.084 52.011 244.34 49.2959C242.595 46.5808 240.226 44.3225 237.431 42.7096C234.636 41.0967 231.495 40.1762 228.271 40.0247C225.048 39.8733 221.835 40.4955 218.9 41.8393C212.623 44.733 205.532 45.3407 198.854 43.5571C192.177 41.7736 186.333 37.711 182.335 32.073C180.468 29.4181 177.99 27.2512 175.11 25.7554C172.23 24.2596 169.033 23.4787 165.788 23.4787C162.542 23.4787 159.345 24.2596 156.465 25.7554C153.585 27.2512 151.107 29.4181 149.24 32.073C145.248 37.7182 139.404 41.7864 132.724 43.5705C126.044 45.3547 118.95 44.7421 112.675 41.8393C109.73 40.4771 106.501 39.8417 103.26 39.9864C100.018 40.131 96.8592 41.0515 94.0475 42.6706C91.2357 44.2896 88.8536 46.5598 87.1013 49.2905C85.3491 52.0212 84.2778 55.1326 83.9775 58.3633C83.3835 65.2515 80.3802 71.7099 75.4957 76.6029C70.6111 81.496 64.1579 84.5105 57.2707 85.1164C54.0564 85.4288 50.9632 86.5046 48.2487 88.2542C45.5342 90.0038 43.277 92.3766 41.665 95.175C40.053 97.9734 39.1328 101.116 38.9811 104.342C38.8294 107.568 39.4506 110.784 40.793 113.721C43.6835 119.991 44.2894 127.075 42.5057 133.745C40.722 140.414 36.6611 146.25 31.0267 150.24C28.3718 152.107 26.2049 154.585 24.7091 157.465C23.2133 160.345 22.4324 163.542 22.4324 166.788C22.4324 170.033 23.2133 173.23 24.7091 176.11C26.2049 178.99 28.3718 181.468 31.0267 183.335C36.6719 187.327 40.7401 193.171 42.5243 199.851C44.3084 206.531 43.6959 213.625 40.793 219.9C39.4308 222.845 38.7954 226.074 38.9401 229.315C39.0847 232.557 40.0052 235.716 41.6243 238.528C43.2433 241.339 45.5135 243.721 48.2442 245.474C50.9749 247.226 54.0863 248.297 57.317 248.598C64.2052 249.192 70.6636 252.195 75.5567 257.079C80.4497 261.964 83.4642 268.417 84.0701 275.304C84.3825 278.519 85.4583 281.612 87.2079 284.326C88.9575 287.041 91.3303 289.298 94.1287 290.91C96.9271 292.522 100.07 293.442 103.296 293.594C106.522 293.746 109.737 293.124 112.675 291.782C116.567 290.008 120.801 289.107 125.079 289.144Z"/>
</mask>
<path d="M165.764 319.554C161.032 319.587 156.362 318.467 152.16 316.289C147.958 314.112 144.351 310.943 141.65 307.056C138.927 303.163 134.921 300.353 130.335 299.117C125.748 297.882 120.872 298.3 116.563 300.299C112.273 302.255 107.577 303.155 102.868 302.925C98.1592 302.694 93.5738 301.34 89.4955 298.974C85.4172 296.609 81.9646 293.301 79.4263 289.328C76.888 285.355 75.3379 280.832 74.9055 276.138C74.5063 271.361 72.4275 266.88 69.0381 263.491C65.6487 260.101 61.1679 258.022 56.3913 257.623C51.6965 257.191 47.1735 255.641 43.2005 253.103C39.2274 250.564 35.9199 247.112 33.5545 243.033C31.1891 238.955 29.8345 234.37 29.6041 229.661C29.3737 224.952 30.2741 220.256 32.2301 215.966C34.2304 211.669 34.6542 206.804 33.427 202.226C32.1998 197.647 29.4001 193.647 25.5187 190.926C21.6507 188.2 18.4945 184.584 16.3158 180.383C14.1372 176.182 13 171.52 13 166.788C13 162.055 14.1372 157.393 16.3158 153.192C18.4945 148.991 21.6507 145.376 25.5187 142.65C29.4117 139.927 32.2223 135.921 33.4579 131.335C34.6935 126.748 34.2752 121.872 32.2764 117.563C30.3204 113.273 29.42 108.577 29.6504 103.868C29.8808 99.1592 31.2354 94.5738 33.6008 90.4955C35.9662 86.4172 39.2737 82.9646 43.2467 80.4263C47.2198 77.888 51.7428 76.3379 56.4375 75.9055C61.2142 75.5063 65.695 73.4275 69.0844 70.0381C72.4738 66.6487 74.5526 62.1679 74.9518 57.3913C75.3841 52.6965 76.9343 48.1735 79.4726 44.2005C82.0109 40.2274 85.4635 36.9199 89.5418 34.5545C93.6201 32.1891 98.2055 30.8345 102.915 30.6041C107.623 30.3737 112.319 31.2741 116.609 33.2301C120.906 35.2304 125.771 35.6542 130.349 34.427C134.928 33.1998 138.929 30.4001 141.65 26.5187C144.376 22.6507 147.991 19.4945 152.192 17.3158C156.393 15.1372 161.055 14 165.788 14C170.52 14 175.182 15.1372 179.383 17.3158C183.584 19.4945 187.2 22.6507 189.926 26.5187C192.648 30.4117 196.654 33.2223 201.241 34.4579C205.827 35.6935 210.703 35.2752 215.012 33.2764C219.302 31.3204 223.998 30.42 228.707 30.6504C233.416 30.8808 238.001 32.2354 242.08 34.6008C246.158 36.9662 249.611 40.2737 252.149 44.2467C254.687 48.2198 256.237 52.7428 256.67 57.4375C257.069 62.2142 259.148 66.695 262.537 70.0844C265.926 73.4738 270.407 75.5526 275.184 75.9518C279.879 76.3841 284.402 77.9343 288.375 80.4726C292.348 83.0109 295.655 86.4635 298.021 90.5418C300.386 94.6201 301.741 99.2055 301.971 103.915C302.201 108.623 301.301 113.319 299.345 117.609C297.345 121.906 296.921 126.771 298.148 131.349C299.375 135.928 302.175 139.929 306.056 142.65C309.924 145.376 313.081 148.991 315.259 153.192C317.438 157.393 318.575 162.055 318.575 166.788C318.575 171.52 317.438 176.182 315.259 180.383C313.081 184.584 309.924 188.2 306.056 190.926C302.194 193.651 299.411 197.646 298.193 202.214C296.975 206.782 297.399 211.633 299.391 215.92C301.347 220.21 302.248 224.905 302.017 229.614C301.787 234.323 300.432 238.909 298.067 242.987C295.701 247.065 292.394 250.518 288.421 253.056C284.448 255.595 279.925 257.145 275.23 257.577C270.453 257.976 265.973 260.055 262.583 263.444C259.194 266.834 257.115 271.315 256.716 276.091C256.284 280.786 254.733 285.309 252.195 289.282C249.657 293.255 246.204 296.563 242.126 298.928C238.048 301.293 233.462 302.648 228.753 302.878C224.044 303.109 219.348 302.208 215.059 300.252C210.761 298.252 205.897 297.828 201.318 299.056C196.74 300.283 192.739 303.082 190.018 306.964C187.311 310.884 183.685 314.081 179.457 316.276C175.229 318.47 170.528 319.596 165.764 319.554ZM125.079 289.144C129.806 289.141 134.465 290.275 138.661 292.45C142.858 294.625 146.471 297.777 149.194 301.641C151.061 304.296 153.538 306.463 156.418 307.959C159.298 309.454 162.496 310.235 165.741 310.235C168.987 310.235 172.184 309.454 175.064 307.959C177.944 306.463 180.422 304.296 182.288 301.641C186.267 295.98 192.105 291.893 198.786 290.092C205.467 288.29 212.569 288.888 218.854 291.782C221.799 293.144 225.028 293.78 228.269 293.635C231.51 293.49 234.67 292.57 237.481 290.951C240.293 289.332 242.675 287.062 244.427 284.331C246.18 281.6 247.251 278.489 247.551 275.258C248.147 268.363 251.157 261.898 256.051 257.004C260.945 252.11 267.409 249.101 274.304 248.505C277.509 248.183 280.59 247.103 283.294 245.353C285.997 243.603 288.245 241.235 289.851 238.444C291.457 235.652 292.375 232.519 292.529 229.302C292.683 226.086 292.068 222.879 290.736 219.947C287.819 213.678 287.194 206.585 288.971 199.903C290.747 193.221 294.811 187.374 300.456 183.381C303.101 181.513 305.26 179.038 306.75 176.162C308.24 173.287 309.017 170.095 309.017 166.857C309.017 163.618 308.24 160.427 306.75 157.552C305.26 154.676 303.101 152.201 300.456 150.333C294.808 146.332 290.742 140.477 288.966 133.787C287.189 127.097 287.816 119.997 290.736 113.721C292.098 110.776 292.733 107.547 292.589 104.306C292.444 101.065 291.524 97.9055 289.905 95.0937C288.285 92.282 286.015 89.8999 283.285 88.1476C280.554 86.3953 277.442 85.3241 274.212 85.0238C267.324 84.4298 260.865 81.4265 255.972 76.5419C251.079 71.6574 248.065 65.2042 247.459 58.317C247.154 55.1042 246.084 52.011 244.34 49.2959C242.595 46.5808 240.226 44.3225 237.431 42.7096C234.636 41.0967 231.495 40.1762 228.271 40.0247C225.048 39.8733 221.835 40.4955 218.9 41.8393C212.623 44.733 205.532 45.3407 198.854 43.5571C192.177 41.7736 186.333 37.711 182.335 32.073C180.468 29.4181 177.99 27.2512 175.11 25.7554C172.23 24.2596 169.033 23.4787 165.788 23.4787C162.542 23.4787 159.345 24.2596 156.465 25.7554C153.585 27.2512 151.107 29.4181 149.24 32.073C145.248 37.7182 139.404 41.7864 132.724 43.5705C126.044 45.3547 118.95 44.7421 112.675 41.8393C109.73 40.4771 106.501 39.8417 103.26 39.9864C100.018 40.131 96.8592 41.0515 94.0475 42.6706C91.2357 44.2896 88.8536 46.5598 87.1013 49.2905C85.3491 52.0212 84.2778 55.1326 83.9775 58.3633C83.3835 65.2515 80.3802 71.7099 75.4957 76.6029C70.6111 81.496 64.1579 84.5105 57.2707 85.1164C54.0564 85.4288 50.9632 86.5046 48.2487 88.2542C45.5342 90.0038 43.277 92.3766 41.665 95.175C40.053 97.9734 39.1328 101.116 38.9811 104.342C38.8294 107.568 39.4506 110.784 40.793 113.721C43.6835 119.991 44.2894 127.075 42.5057 133.745C40.722 140.414 36.6611 146.25 31.0267 150.24C28.3718 152.107 26.2049 154.585 24.7091 157.465C23.2133 160.345 22.4324 163.542 22.4324 166.788C22.4324 170.033 23.2133 173.23 24.7091 176.11C26.2049 178.99 28.3718 181.468 31.0267 183.335C36.6719 187.327 40.7401 193.171 42.5243 199.851C44.3084 206.531 43.6959 213.625 40.793 219.9C39.4308 222.845 38.7954 226.074 38.9401 229.315C39.0847 232.557 40.0052 235.716 41.6243 238.528C43.2433 241.339 45.5135 243.721 48.2442 245.474C50.9749 247.226 54.0863 248.297 57.317 248.598C64.2052 249.192 70.6636 252.195 75.5567 257.079C80.4497 261.964 83.4642 268.417 84.0701 275.304C84.3825 278.519 85.4583 281.612 87.2079 284.326C88.9575 287.041 91.3303 289.298 94.1287 290.91C96.9271 292.522 100.07 293.442 103.296 293.594C106.522 293.746 109.737 293.124 112.675 291.782C116.567 290.008 120.801 289.107 125.079 289.144Z" fill="#1B6640" stroke="#104028" stroke-width="10" mask="url(#path-3-inside-1_20_49)"/>
<mask id="path-4-inside-2_20_49" fill="white">
<path d="M165.764 293.217C161.735 293.234 157.763 292.269 154.19 290.406C150.618 288.543 147.552 285.838 145.26 282.525C143.137 279.485 140.013 277.287 136.435 276.314C132.857 275.342 129.051 275.656 125.681 277.202C122.032 278.907 118.026 279.707 114.002 279.534C109.979 279.361 106.056 278.22 102.567 276.207C99.0786 274.195 96.1267 271.371 93.9622 267.975C91.7977 264.578 90.4843 260.71 90.1335 256.698C89.8014 253.004 88.1831 249.544 85.5607 246.922C82.9384 244.299 79.4786 242.681 75.785 242.349C71.779 241.995 67.917 240.682 64.5259 238.52C61.1348 236.359 58.3142 233.412 56.3029 229.929C54.2915 226.447 53.1485 222.531 52.9705 218.514C52.7925 214.496 53.5848 210.494 55.2804 206.848C56.8023 203.497 57.1128 199.721 56.1587 196.167C55.2047 192.613 53.0454 189.5 50.0501 187.362C46.7645 185.04 44.084 181.965 42.234 178.393C40.3839 174.821 39.4183 170.857 39.4183 166.834C39.4183 162.811 40.3839 158.847 42.234 155.275C44.084 151.703 46.7645 148.627 50.0501 146.306C53.0936 144.175 55.2932 141.044 56.2658 137.458C57.2384 133.872 56.9225 130.058 55.373 126.681C53.6774 123.034 52.8851 119.033 53.0631 115.015C53.241 110.998 54.3841 107.082 56.3954 103.599C58.4068 100.117 61.2274 97.1703 64.6185 95.0085C68.0096 92.8466 71.8715 91.5334 75.8775 91.1798C79.5712 90.8477 83.031 89.2293 85.6533 86.607C88.2756 83.9847 89.894 80.5249 90.2261 76.8313C90.5797 72.8252 91.8929 68.9633 94.0547 65.5722C96.2165 62.1811 99.1633 59.3605 102.646 57.3492C106.128 55.3378 110.044 54.1948 114.062 54.0168C118.079 53.8388 122.081 54.6311 125.727 56.3267C129.078 57.8486 132.854 58.1591 136.408 57.205C139.963 56.251 143.075 54.0917 145.214 51.0964C147.511 47.7767 150.583 45.0677 154.164 43.2044C157.746 41.3412 161.728 40.3801 165.764 40.4044C169.795 40.3796 173.77 41.3409 177.344 43.2045C180.918 45.0681 183.982 47.7774 186.269 51.0964C188.392 54.1362 191.515 56.3342 195.093 57.307C198.672 58.2798 202.478 57.9656 205.848 56.4193C209.497 54.714 213.503 53.9141 217.526 54.0872C221.55 54.2604 225.473 55.4016 228.962 57.4139C232.45 59.4263 235.402 62.2505 237.567 65.6469C239.731 69.0433 241.044 72.9116 241.395 76.9238C241.727 80.6175 243.346 84.0772 245.968 86.6996C248.59 89.3219 252.05 90.9403 255.744 91.2724C259.75 91.626 263.612 92.9392 267.003 95.101C270.394 97.2628 273.215 100.21 275.226 103.692C277.237 107.175 278.38 111.09 278.558 115.108C278.736 119.125 277.944 123.127 276.248 126.774C274.726 130.124 274.416 133.9 275.37 137.454C276.324 141.009 278.483 144.121 281.479 146.26C284.764 148.576 287.445 151.647 289.295 155.216C291.146 158.784 292.112 162.745 292.112 166.764C292.112 170.784 291.146 174.745 289.295 178.313C287.445 181.882 284.764 184.953 281.479 187.269C278.424 189.402 276.213 192.538 275.232 196.132C274.251 199.727 274.562 203.551 276.11 206.94C277.805 210.587 278.597 214.588 278.419 218.606C278.241 222.624 277.098 226.539 275.087 230.022C273.076 233.504 270.255 236.451 266.864 238.613C263.473 240.775 259.611 242.088 255.605 242.442C251.911 242.774 248.452 244.392 245.829 247.014C243.207 249.637 241.588 253.096 241.256 256.79C240.903 260.796 239.59 264.658 237.428 268.049C235.266 271.44 232.319 274.261 228.837 276.272C225.354 278.284 221.439 279.427 217.421 279.605C213.403 279.783 209.402 278.99 205.755 277.295C202.41 275.785 198.645 275.481 195.1 276.435C191.556 277.388 188.452 279.54 186.315 282.525C184.018 285.845 180.946 288.554 177.364 290.417C173.783 292.28 169.801 293.241 165.764 293.217ZM132.3 266.603C136.318 266.591 140.28 267.549 143.849 269.394C147.418 271.239 150.49 273.917 152.804 277.202C154.259 279.284 156.195 280.984 158.447 282.157C160.699 283.331 163.202 283.944 165.741 283.944C168.281 283.944 170.783 283.331 173.035 282.157C175.288 280.984 177.223 279.284 178.678 277.202C182.059 272.396 187.021 268.929 192.697 267.406C198.373 265.884 204.403 266.402 209.736 268.871C212.041 269.944 214.571 270.446 217.112 270.334C219.652 270.222 222.128 269.5 224.33 268.229C226.533 266.957 228.396 265.174 229.763 263.03C231.13 260.886 231.961 258.444 232.184 255.911C232.704 250.058 235.266 244.575 239.42 240.42C243.575 236.266 249.058 233.704 254.911 233.184C257.438 232.958 259.873 232.128 262.012 230.763C264.151 229.399 265.931 227.541 267.201 225.345C268.471 223.149 269.195 220.679 269.312 218.145C269.428 215.611 268.934 213.085 267.871 210.782C265.397 205.454 264.872 199.428 266.386 193.752C267.9 188.077 271.357 183.112 276.156 179.724L278.887 183.474L276.202 179.678C278.274 178.222 279.966 176.288 281.133 174.041C282.301 171.793 282.911 169.297 282.911 166.764C282.911 164.232 282.301 161.736 281.133 159.488C279.966 157.241 278.274 155.307 276.202 153.851C271.396 150.469 267.929 145.508 266.406 139.832C264.883 134.156 265.402 128.126 267.871 122.793C268.944 120.488 269.446 117.958 269.334 115.417C269.222 112.877 268.5 110.401 267.229 108.198C265.957 105.996 264.174 104.133 262.03 102.765C259.886 101.398 257.444 100.568 254.911 100.344C249.058 99.8244 243.575 97.2631 239.42 93.1084C235.266 88.9538 232.704 83.4706 232.184 77.6181C231.968 75.0866 231.144 72.6446 229.782 70.4997C228.421 68.3548 226.561 66.5704 224.362 65.2982C222.163 64.0259 219.689 63.3033 217.15 63.1919C214.612 63.0804 212.084 63.5834 209.782 64.6581C204.454 67.1316 198.428 67.6571 192.752 66.1431C187.077 64.6291 182.112 61.1715 178.724 56.373C177.27 54.288 175.33 52.5878 173.072 51.4187C170.815 50.2496 168.307 49.6466 165.764 49.6615C163.228 49.6462 160.727 50.2494 158.477 51.4189C156.227 52.5883 154.295 54.2888 152.851 56.373C149.469 61.1794 144.508 64.6464 138.832 66.169C133.156 67.6916 127.126 67.1732 121.793 64.7044C119.488 63.6313 116.958 63.1294 114.417 63.2411C111.877 63.3529 109.401 64.075 107.198 65.3465C104.996 66.6179 103.133 68.4011 101.765 70.5452C100.398 72.6894 99.5679 75.1313 99.3444 77.6644C98.8244 83.5169 96.263 89.0001 92.1084 93.1547C87.9538 97.3093 82.4706 99.8707 76.6181 100.391C74.0866 100.607 71.6446 101.431 69.4997 102.793C67.3548 104.155 65.5704 106.014 64.2982 108.213C63.0259 110.413 62.3033 112.886 62.1919 115.425C62.0805 117.963 62.5834 120.491 63.6581 122.793C66.1316 128.121 66.6571 134.148 65.1431 139.823C63.6291 145.499 60.1715 150.463 55.373 153.851C53.2913 155.306 51.5915 157.241 50.4179 159.494C49.2442 161.746 48.6314 164.248 48.6314 166.788C48.6314 169.327 49.2442 171.829 50.4179 174.082C51.5915 176.334 53.2913 178.27 55.373 179.724C60.1794 183.106 63.6464 188.067 65.169 193.743C66.6916 199.419 66.1733 205.449 63.7044 210.782C62.6313 213.088 62.1294 215.617 62.2411 218.158C62.3529 220.698 63.075 223.175 64.3464 225.377C65.6179 227.579 67.4011 229.443 69.5452 230.81C71.6894 232.177 74.1313 233.007 76.6644 233.231C82.5169 233.751 88.0001 236.312 92.1547 240.467C96.3093 244.621 98.8707 250.105 99.3907 255.957C99.6067 258.488 100.431 260.93 101.793 263.075C103.155 265.22 105.014 267.005 107.213 268.277C109.413 269.549 111.886 270.272 114.425 270.383C116.963 270.495 119.491 269.992 121.793 268.917C125.087 267.396 128.672 266.607 132.3 266.603Z"/>
</mask>
<path d="M165.764 293.217C161.735 293.234 157.763 292.269 154.19 290.406C150.618 288.543 147.552 285.838 145.26 282.525C143.137 279.485 140.013 277.287 136.435 276.314C132.857 275.342 129.051 275.656 125.681 277.202C122.032 278.907 118.026 279.707 114.002 279.534C109.979 279.361 106.056 278.22 102.567 276.207C99.0786 274.195 96.1267 271.371 93.9622 267.975C91.7977 264.578 90.4843 260.71 90.1335 256.698C89.8014 253.004 88.1831 249.544 85.5607 246.922C82.9384 244.299 79.4786 242.681 75.785 242.349C71.779 241.995 67.917 240.682 64.5259 238.52C61.1348 236.359 58.3142 233.412 56.3029 229.929C54.2915 226.447 53.1485 222.531 52.9705 218.514C52.7925 214.496 53.5848 210.494 55.2804 206.848C56.8023 203.497 57.1128 199.721 56.1587 196.167C55.2047 192.613 53.0454 189.5 50.0501 187.362C46.7645 185.04 44.084 181.965 42.234 178.393C40.3839 174.821 39.4183 170.857 39.4183 166.834C39.4183 162.811 40.3839 158.847 42.234 155.275C44.084 151.703 46.7645 148.627 50.0501 146.306C53.0936 144.175 55.2932 141.044 56.2658 137.458C57.2384 133.872 56.9225 130.058 55.373 126.681C53.6774 123.034 52.8851 119.033 53.0631 115.015C53.241 110.998 54.3841 107.082 56.3954 103.599C58.4068 100.117 61.2274 97.1703 64.6185 95.0085C68.0096 92.8466 71.8715 91.5334 75.8775 91.1798C79.5712 90.8477 83.031 89.2293 85.6533 86.607C88.2756 83.9847 89.894 80.5249 90.2261 76.8313C90.5797 72.8252 91.8929 68.9633 94.0547 65.5722C96.2165 62.1811 99.1633 59.3605 102.646 57.3492C106.128 55.3378 110.044 54.1948 114.062 54.0168C118.079 53.8388 122.081 54.6311 125.727 56.3267C129.078 57.8486 132.854 58.1591 136.408 57.205C139.963 56.251 143.075 54.0917 145.214 51.0964C147.511 47.7767 150.583 45.0677 154.164 43.2044C157.746 41.3412 161.728 40.3801 165.764 40.4044C169.795 40.3796 173.77 41.3409 177.344 43.2045C180.918 45.0681 183.982 47.7774 186.269 51.0964C188.392 54.1362 191.515 56.3342 195.093 57.307C198.672 58.2798 202.478 57.9656 205.848 56.4193C209.497 54.714 213.503 53.9141 217.526 54.0872C221.55 54.2604 225.473 55.4016 228.962 57.4139C232.45 59.4263 235.402 62.2505 237.567 65.6469C239.731 69.0433 241.044 72.9116 241.395 76.9238C241.727 80.6175 243.346 84.0772 245.968 86.6996C248.59 89.3219 252.05 90.9403 255.744 91.2724C259.75 91.626 263.612 92.9392 267.003 95.101C270.394 97.2628 273.215 100.21 275.226 103.692C277.237 107.175 278.38 111.09 278.558 115.108C278.736 119.125 277.944 123.127 276.248 126.774C274.726 130.124 274.416 133.9 275.37 137.454C276.324 141.009 278.483 144.121 281.479 146.26C284.764 148.576 287.445 151.647 289.295 155.216C291.146 158.784 292.112 162.745 292.112 166.764C292.112 170.784 291.146 174.745 289.295 178.313C287.445 181.882 284.764 184.953 281.479 187.269C278.424 189.402 276.213 192.538 275.232 196.132C274.251 199.727 274.562 203.551 276.11 206.94C277.805 210.587 278.597 214.588 278.419 218.606C278.241 222.624 277.098 226.539 275.087 230.022C273.076 233.504 270.255 236.451 266.864 238.613C263.473 240.775 259.611 242.088 255.605 242.442C251.911 242.774 248.452 244.392 245.829 247.014C243.207 249.637 241.588 253.096 241.256 256.79C240.903 260.796 239.59 264.658 237.428 268.049C235.266 271.44 232.319 274.261 228.837 276.272C225.354 278.284 221.439 279.427 217.421 279.605C213.403 279.783 209.402 278.99 205.755 277.295C202.41 275.785 198.645 275.481 195.1 276.435C191.556 277.388 188.452 279.54 186.315 282.525C184.018 285.845 180.946 288.554 177.364 290.417C173.783 292.28 169.801 293.241 165.764 293.217ZM132.3 266.603C136.318 266.591 140.28 267.549 143.849 269.394C147.418 271.239 150.49 273.917 152.804 277.202C154.259 279.284 156.195 280.984 158.447 282.157C160.699 283.331 163.202 283.944 165.741 283.944C168.281 283.944 170.783 283.331 173.035 282.157C175.288 280.984 177.223 279.284 178.678 277.202C182.059 272.396 187.021 268.929 192.697 267.406C198.373 265.884 204.403 266.402 209.736 268.871C212.041 269.944 214.571 270.446 217.112 270.334C219.652 270.222 222.128 269.5 224.33 268.229C226.533 266.957 228.396 265.174 229.763 263.03C231.13 260.886 231.961 258.444 232.184 255.911C232.704 250.058 235.266 244.575 239.42 240.42C243.575 236.266 249.058 233.704 254.911 233.184C257.438 232.958 259.873 232.128 262.012 230.763C264.151 229.399 265.931 227.541 267.201 225.345C268.471 223.149 269.195 220.679 269.312 218.145C269.428 215.611 268.934 213.085 267.871 210.782C265.397 205.454 264.872 199.428 266.386 193.752C267.9 188.077 271.357 183.112 276.156 179.724L278.887 183.474L276.202 179.678C278.274 178.222 279.966 176.288 281.133 174.041C282.301 171.793 282.911 169.297 282.911 166.764C282.911 164.232 282.301 161.736 281.133 159.488C279.966 157.241 278.274 155.307 276.202 153.851C271.396 150.469 267.929 145.508 266.406 139.832C264.883 134.156 265.402 128.126 267.871 122.793C268.944 120.488 269.446 117.958 269.334 115.417C269.222 112.877 268.5 110.401 267.229 108.198C265.957 105.996 264.174 104.133 262.03 102.765C259.886 101.398 257.444 100.568 254.911 100.344C249.058 99.8244 243.575 97.2631 239.42 93.1084C235.266 88.9538 232.704 83.4706 232.184 77.6181C231.968 75.0866 231.144 72.6446 229.782 70.4997C228.421 68.3548 226.561 66.5704 224.362 65.2982C222.163 64.0259 219.689 63.3033 217.15 63.1919C214.612 63.0804 212.084 63.5834 209.782 64.6581C204.454 67.1316 198.428 67.6571 192.752 66.1431C187.077 64.6291 182.112 61.1715 178.724 56.373C177.27 54.288 175.33 52.5878 173.072 51.4187C170.815 50.2496 168.307 49.6466 165.764 49.6615C163.228 49.6462 160.727 50.2494 158.477 51.4189C156.227 52.5883 154.295 54.2888 152.851 56.373C149.469 61.1794 144.508 64.6464 138.832 66.169C133.156 67.6916 127.126 67.1732 121.793 64.7044C119.488 63.6313 116.958 63.1294 114.417 63.2411C111.877 63.3529 109.401 64.075 107.198 65.3465C104.996 66.6179 103.133 68.4011 101.765 70.5452C100.398 72.6894 99.5679 75.1313 99.3444 77.6644C98.8244 83.5169 96.263 89.0001 92.1084 93.1547C87.9538 97.3093 82.4706 99.8707 76.6181 100.391C74.0866 100.607 71.6446 101.431 69.4997 102.793C67.3548 104.155 65.5704 106.014 64.2982 108.213C63.0259 110.413 62.3033 112.886 62.1919 115.425C62.0805 117.963 62.5834 120.491 63.6581 122.793C66.1316 128.121 66.6571 134.148 65.1431 139.823C63.6291 145.499 60.1715 150.463 55.373 153.851C53.2913 155.306 51.5915 157.241 50.4179 159.494C49.2442 161.746 48.6314 164.248 48.6314 166.788C48.6314 169.327 49.2442 171.829 50.4179 174.082C51.5915 176.334 53.2913 178.27 55.373 179.724C60.1794 183.106 63.6464 188.067 65.169 193.743C66.6916 199.419 66.1733 205.449 63.7044 210.782C62.6313 213.088 62.1294 215.617 62.2411 218.158C62.3529 220.698 63.075 223.175 64.3464 225.377C65.6179 227.579 67.4011 229.443 69.5452 230.81C71.6894 232.177 74.1313 233.007 76.6644 233.231C82.5169 233.751 88.0001 236.312 92.1547 240.467C96.3093 244.621 98.8707 250.105 99.3907 255.957C99.6067 258.488 100.431 260.93 101.793 263.075C103.155 265.22 105.014 267.005 107.213 268.277C109.413 269.549 111.886 270.272 114.425 270.383C116.963 270.495 119.491 269.992 121.793 268.917C125.087 267.396 128.672 266.607 132.3 266.603Z" fill="#1B6640" stroke="#104028" stroke-width="10" mask="url(#path-4-inside-2_20_49)"/>
<path d="M90.2727 147.556H124.108C126.403 147.557 128.604 148.469 130.227 150.092C131.85 151.715 132.762 153.916 132.762 156.212V218.28C132.762 220.575 131.85 222.777 130.227 224.4C128.604 226.023 126.403 226.935 124.108 226.935H90.2727C89.7082 226.935 89.166 226.711 88.7668 226.312C88.3677 225.913 88.1438 225.371 88.1438 224.806V149.685C88.1438 149.121 88.3677 148.579 88.7668 148.179C89.166 147.78 89.7082 147.556 90.2727 147.556ZM128.505 156.181L128.504 156.152C128.479 155.081 128.068 154.059 127.351 153.269L127.204 153.115L127.049 152.968C126.26 152.251 125.237 151.839 124.166 151.814L124.137 151.813H92.4006V222.678H124.137L124.166 222.677C125.308 222.651 126.397 222.184 127.204 221.377C128.012 220.569 128.477 219.481 128.504 218.34L128.505 218.31V156.181Z" fill="#1B6640" stroke="#104028" stroke-width="5"/>
<path d="M166.276 77.4335C169.016 77.4339 172.243 78.0494 175.432 80.1288C178.614 82.2029 181.938 85.8518 184.693 92.2177C186.812 97.7624 187.745 103.69 187.43 109.617C187.163 112.81 186.453 115.95 185.319 118.946L185.157 119.374V119.753C185.147 119.788 185.12 119.876 185.055 120.036C185.025 120.112 184.99 120.193 184.949 120.291C184.91 120.383 184.863 120.496 184.817 120.608C184.73 120.822 184.624 121.093 184.533 121.393C183.805 123.558 183.251 125.777 182.877 128.03L182.394 130.939H235.165L235.495 130.947C238.91 131.069 242.159 132.478 244.585 134.896C247.086 137.39 248.514 140.762 248.568 144.293C248.569 147.037 247.726 149.716 246.152 151.965C244.575 154.219 242.342 155.932 239.756 156.87L236.992 157.873L238.426 160.439C239.858 163.004 240.419 165.963 240.024 168.874C239.63 171.785 238.301 174.489 236.237 176.579L236.231 176.586L236.224 176.593C235.362 177.479 234.373 178.234 233.29 178.832L230.969 180.114L232.386 182.356C233.762 184.534 234.494 187.057 234.498 189.633V189.637C234.503 191.395 234.161 193.137 233.492 194.763C232.823 196.389 231.839 197.867 230.598 199.112L230.594 199.117C228.965 200.76 226.928 201.94 224.692 202.534L221.759 203.313L223.086 206.043C223.935 207.789 224.371 209.708 224.361 211.649V211.678L224.362 211.707C224.394 213.465 224.066 215.211 223.399 216.838C222.732 218.465 221.741 219.939 220.484 221.169L220.458 221.194L220.432 221.221C219.215 222.484 217.748 223.48 216.125 224.145C214.502 224.811 212.758 225.131 211.005 225.085L210.965 225.084H210.926L144.968 225.454H144.962C141.318 225.483 137.773 224.268 134.913 222.011C131.674 219.407 129.484 215.722 128.743 211.633L128.74 211.619L128.738 211.606L128.681 211.294C128.56 210.564 128.5 209.824 128.505 209.084V154.829C128.506 154.395 128.64 153.971 128.888 153.615L128.895 153.604L144.864 130.461L144.872 130.451L144.879 130.44C154.537 116.127 158.724 98.8174 156.676 81.6728L156.674 81.6591L156.672 81.6464L156.657 81.4882C156.637 81.1195 156.713 80.7507 156.879 80.4189C157.063 80.0498 157.351 79.7425 157.707 79.5341C160.355 78.1621 163.293 77.442 166.276 77.4335ZM224.223 155.435C224.216 154.927 224.39 154.434 224.714 154.044C225.002 153.697 225.392 153.452 225.827 153.342H235.193C236.396 153.342 237.587 153.104 238.697 152.642C239.808 152.179 240.816 151.502 241.664 150.648C242.511 149.795 243.181 148.782 243.636 147.669C244.09 146.555 244.32 145.362 244.311 144.159V144.118L244.309 144.076L244.281 143.636C244.088 141.441 243.121 139.381 241.546 137.827C239.865 136.17 237.618 135.214 235.259 135.151L235.226 135.15H180.286C179.757 135.153 179.245 134.959 178.851 134.604C178.467 134.259 178.223 133.785 178.162 133.272C177.925 128.807 178.614 124.341 180.185 120.154L180.205 120.103L180.221 120.052L180.991 117.693C181.927 115.178 182.56 112.559 182.874 109.893L182.882 109.827L182.886 109.76C183.226 104.39 182.433 99.009 180.558 93.9658L180.535 93.9023L180.508 93.8398L180.276 93.3163C177.865 87.9807 175.076 84.9872 172.358 83.372C169.553 81.7051 167.118 81.6905 166.022 81.6904C164.966 81.679 163.913 81.7943 162.885 82.0331L160.796 82.5185L160.957 84.6572C162.248 101.748 157.739 118.774 148.159 132.984L132.977 154.831L132.531 155.475V208.973C132.481 209.553 132.483 210.137 132.544 210.717L132.555 210.816L132.573 210.915C133.137 213.952 134.76 216.69 137.153 218.643L137.168 218.655L137.182 218.668C139.349 220.381 142.05 221.274 144.81 221.195L144.811 221.197L210.713 220.827C211.866 220.871 213.017 220.685 214.096 220.274C215.22 219.847 216.241 219.189 217.095 218.344C218.015 217.489 218.746 216.45 219.233 215.292C219.735 214.099 219.969 212.81 219.918 211.517H219.916C219.885 209.615 219.266 207.77 218.138 206.237C216.996 204.683 215.391 203.53 213.555 202.94L213.35 202.874L213.138 202.845L212.926 202.805C212.44 202.687 212.007 202.404 211.703 202.001C211.356 201.541 211.206 200.961 211.286 200.391C211.366 199.82 211.67 199.304 212.13 198.957C212.59 198.61 213.169 198.459 213.74 198.539L213.913 198.563H221.076C222.279 198.563 223.47 198.325 224.58 197.863C225.69 197.401 226.699 196.724 227.547 195.87C228.394 195.017 229.065 194.003 229.519 192.89C229.972 191.781 230.2 190.595 230.194 189.398H230.195C230.195 186.98 229.234 184.66 227.524 182.95C225.814 181.24 223.494 180.279 221.076 180.279C220.512 180.279 219.97 180.055 219.571 179.656C219.172 179.257 218.947 178.715 218.947 178.15C218.947 177.586 219.172 177.045 219.571 176.645C219.97 176.246 220.512 176.022 221.076 176.022H226.722V176.02C227.919 176.034 229.105 175.804 230.209 175.341C231.291 174.886 232.269 174.216 233.088 173.375L233.089 173.376C233.949 172.545 234.636 171.55 235.108 170.451C235.581 169.352 235.83 168.17 235.842 166.974V166.95C235.842 165.706 235.594 164.474 235.112 163.327C234.63 162.18 233.924 161.141 233.036 160.27C232.148 159.4 231.095 158.715 229.938 158.257C228.798 157.804 227.579 157.581 226.352 157.6L226.142 157.589C225.655 157.54 225.197 157.325 224.847 156.976C224.448 156.576 224.223 156.035 224.223 155.471V155.435Z" fill="#1B6640" stroke="#104028" stroke-width="5"/>
</svg>
